<?xml version="1.0" encoding="UTF-8" standalone="no"?> <svg id="Layer_1" data-name="Layer 1" xmlns="http://www.w3.org/2000/svg" viewBox="0 0 512 512"><title>Screenshot</title><path d="M42.653,170.667A21.333,21.333,0,0,1,21.32,149.333V85.32a64.073,64.073,0,0,1,64-64h64.014a21.333,21.333,0,1,1,0,42.667H85.32A21.357,21.357,0,0,0,63.986,85.32v64.014A21.333,21.333,0,0,1,42.653,170.667Z"/><path d="M426.68,490.68H362.667a21.333,21.333,0,1,1,0-42.667H426.68a21.357,21.357,0,0,0,21.333-21.333V362.667a21.333,21.333,0,1,1,42.667,0V426.68A64.073,64.073,0,0,1,426.68,490.68Z"/><path d="M448,170.667a21.333,21.333,0,0,1-21.333-21.333V85.32a21.357,21.357,0,0,0-21.333-21.333H341.32a21.333,21.333,0,1,1,0-42.667h64.014a64.073,64.073,0,0,1,64,64v64.014A21.333,21.333,0,0,1,448,170.667Z"/><path d="M149.333,490.68H85.32a64.073,64.073,0,0,1-64-64V362.667a21.333,21.333,0,1,1,42.667,0V426.68A21.357,21.357,0,0,0,85.32,448.014h64.014a21.333,21.333,0,1,1,0,42.667Z"/><path d="M362.68,384.014H149.32a42.716,42.716,0,0,1-42.667-42.667V213.32a42.716,42.716,0,0,1,42.667-42.667h29.5l15.436-30.874a21.334,21.334,0,0,1,19.081-11.793h85.333a21.334,21.334,0,0,1,19.081,11.793l15.436,30.874h29.5a42.716,42.716,0,0,1,42.667,42.667V341.347A42.716,42.716,0,0,1,362.68,384.014ZM149.32,213.32V341.347H362.68V213.32H320a21.334,21.334,0,0,1-19.081-11.793l-15.436-30.874H226.518l-15.436,30.874A21.334,21.334,0,0,1,192,213.32Z"/><path d="M256,330.667a64,64,0,1,1,64-64A64.073,64.073,0,0,1,256,330.667Zm0-85.333a21.333,21.333,0,1,0,21.333,21.333A21.357,21.357,0,0,0,256,245.333Z"/></svg>